# xmcd
#
# Track frame offsets:
#	179
#	12447
#	23772
#	39641
#	51185
#	63163
#	79952
#	95525
#	108798
#	117994
#
# Disc length: 1703 seconds
# Revision: 3
# Processed by: cddbd v1.5.2PL0 Copyright (c) Steve Scherf et al.
# Submitted via: dBpowerAMP V12.0
#
DISCID=7906a50a
DTITLE=Johnny Cash - Complete Columbia Album Collection, Disc 34 [Johnny Cash and His Woman]
DYEAR=1973
DGENRE=Country
TTITLE0=The Color of Love
TTITLE1=Saturday Night in Hickman County
TTITLE2=Allegheny
TTITLE3=Life Has It's Little Ups and Downs
TTITLE4=Matthew 24 (Is Knocking at the Door)
TTITLE5=The City of New Orleans
TTITLE6=Tony
TTITLE7=The Pine Tree
TTITLE8=We're for Love
TTITLE9=Godshine
EXTD=
EXTT0=
EXTT1=
EXTT2=
EXTT3=
EXTT4=
EXTT5=
EXTT6=
EXTT7=
EXTT8=
EXTT9=
PLAYORDER=
